ply
format ascii 1.0
comment Created by Blender 2.80 (sub 75) - www.blender.org, source file: 'tetra.blend'
element vertex 78
property float x
property float y
property float z
property float nx
property float ny
property float nz
property float s
property float t
element face 26
property list uchar uint vertex_indices
end_header
0.471405 0.816497 0.333333 0.471401 -0.816491 0.333353 0.998999 0.748999
-0.235715 0.408241 0.333333 0.471401 -0.816491 0.333353 0.998999 0.502002
0.235717 0.408240 -0.333333 0.471401 -0.816491 0.333353 0.752002 0.748999
0.471380 -0.816512 0.333333 0.942809 -0.000032 -0.333335 0.752002 0.498999
0.235690 -0.408256 -0.333333 0.942809 -0.000032 -0.333335 0.998999 0.252002
0.471407 -0.000016 0.333333 0.942809 -0.000032 -0.333335 0.998999 0.498999
0.471380 -0.816512 0.333333 -0.471418 -0.816486 -0.333340 0.002002 0.998999
-0.235715 -0.408253 0.333333 -0.471418 -0.816486 -0.333340 0.248999 0.998999
0.235690 -0.408256 -0.333333 -0.471418 -0.816486 -0.333340 0.248999 0.752002
0.235690 -0.408256 -0.333333 -0.471418 -0.816486 -0.333340 0.252002 0.498999
-0.471405 0.000003 -0.333333 -0.471418 -0.816486 -0.333340 0.498999 0.498999
-0.000000 0.000000 -1.000000 -0.471418 -0.816486 -0.333340 0.498999 0.252002
0.000000 -0.000000 1.000000 0.471421 0.816490 0.333327 0.748999 0.248999
0.471407 -0.000016 0.333333 0.471421 0.816490 0.333327 0.502002 0.248999
-0.235702 0.408252 0.333333 0.471421 0.816490 0.333327 0.748999 0.002002
-0.235700 -0.408250 0.333333 -0.942807 -0.000017 0.333340 0.001001 0.751001
0.000000 -0.000000 1.000000 -0.942807 -0.000017 0.333340 0.001001 0.997998
-0.235715 0.408241 0.333333 -0.942807 -0.000017 0.333340 0.247998 0.751001
-0.471400 -0.816500 -0.333333 -0.942807 -0.000017 0.333340 0.251001 0.251001
-0.235700 -0.408250 0.333333 -0.942807 -0.000017 0.333340 0.251001 0.497998
-0.471415 -0.000009 -0.333333 -0.942807 -0.000017 0.333340 0.497998 0.251001
-0.471430 0.816483 -0.333333 -0.942807 -0.000017 0.333340 0.252002 0.748999
-0.471415 -0.000009 -0.333333 -0.942807 -0.000017 0.333340 0.498999 0.748999
-0.235715 0.408241 0.333333 -0.942807 -0.000017 0.333340 0.498999 0.502002
0.235690 -0.408256 -0.333333 -0.471418 -0.816486 -0.333340 0.498999 0.248999
-0.235715 -0.408253 0.333333 -0.471418 -0.816486 -0.333340 0.498999 0.002002
-0.471405 0.000003 -0.333333 -0.471418 -0.816486 -0.333340 0.252002 0.248999
-0.235715 -0.408253 0.333333 -0.471418 -0.816486 -0.333340 0.497998 0.001001
-0.942810 0.000006 0.333333 -0.471418 -0.816486 -0.333340 0.251001 0.001001
-0.471405 0.000003 -0.333333 -0.471418 -0.816486 -0.333340 0.251001 0.247998
0.471407 -0.000016 0.333333 0.942808 -0.000032 -0.333335 0.497998 0.501001
0.235717 0.408240 -0.333333 0.942808 -0.000032 -0.333335 0.251001 0.747998
0.471435 0.816480 0.333333 0.942808 -0.000032 -0.333335 0.251001 0.501001
0.471407 -0.000016 0.333333 0.942808 -0.000032 -0.333335 0.751001 0.497998
0.235690 -0.408256 -0.333333 0.942808 -0.000032 -0.333335 0.751001 0.251001
0.235717 0.408240 -0.333333 0.942808 -0.000032 -0.333335 0.997998 0.251001
0.235690 -0.408256 -0.333333 0.942809 -0.000032 -0.333335 0.752002 0.998999
-0.000000 0.000000 -1.000000 0.942809 -0.000032 -0.333335 0.998999 0.752002
0.235717 0.408240 -0.333333 0.942809 -0.000032 -0.333335 0.998999 0.998999
0.471407 -0.000016 0.333333 0.000000 0.000000 1.000000 0.998999 0.002002
-0.235700 -0.408250 0.333333 0.000000 0.000000 1.000000 0.998999 0.248999
0.471380 -0.816512 0.333333 0.000000 0.000000 1.000000 0.752002 0.248999
0.000000 -0.000000 1.000000 0.471386 -0.816504 0.333342 0.751001 0.751001
-0.235715 -0.408253 0.333333 0.471386 -0.816504 0.333342 0.751001 0.997998
0.471407 -0.000016 0.333333 0.471386 -0.816504 0.333342 0.997998 0.751001
-0.942810 0.000006 0.333333 -0.000000 -0.000000 1.000000 0.751001 0.001001
-0.235715 -0.408253 0.333333 -0.000000 -0.000000 1.000000 0.751001 0.247998
-0.235715 0.408241 0.333333 -0.000000 -0.000000 1.000000 0.997998 0.001001
-0.471400 -0.816500 -0.333333 -0.471408 0.816492 -0.333340 0.498999 0.998999
-0.235715 -0.408253 0.333333 -0.471408 0.816492 -0.333340 0.498999 0.752002
0.235690 -0.408256 -0.333333 -0.471408 0.816492 -0.333340 0.252002 0.998999
-0.471400 -0.816500 -0.333333 -0.000000 -0.000000 -1.000000 0.748999 0.998999
-0.471415 -0.000009 -0.333333 -0.000000 -0.000000 -1.000000 0.748999 0.752002
0.235690 -0.408256 -0.333333 -0.000000 -0.000000 -1.000000 0.502002 0.998999
-0.471405 0.000003 -0.333333 0.000000 -0.000000 1.000000 0.748999 0.748999
0.235717 0.408240 -0.333333 0.000000 -0.000000 1.000000 0.748999 0.502002
-0.471430 0.816483 -0.333333 0.000000 -0.000000 1.000000 0.502002 0.748999
-0.235702 0.408252 0.333333 0.000000 0.000000 1.000000 0.751001 0.747998
0.471407 -0.000016 0.333333 0.000000 0.000000 1.000000 0.751001 0.501001
0.471435 0.816480 0.333333 0.000000 0.000000 1.000000 0.997998 0.501001
0.235690 -0.408256 -0.333333 -0.471441 0.816491 -0.333296 0.748999 0.252002
0.471407 -0.000016 0.333333 -0.471441 0.816491 -0.333296 0.748999 0.498999
0.942810 0.000035 -0.333333 -0.471441 0.816491 -0.333296 0.502002 0.498999
0.235717 0.408240 -0.333333 -0.000000 0.000000 1.000000 0.501001 0.501001
0.235690 -0.408256 -0.333333 -0.000000 0.000000 1.000000 0.501001 0.747998
0.942810 0.000035 -0.333333 -0.000000 0.000000 1.000000 0.747998 0.501001
0.942810 0.000035 -0.333333 -0.471368 -0.816503 -0.333368 0.751001 0.501001
0.471407 -0.000016 0.333333 -0.471368 -0.816503 -0.333368 0.751001 0.747998
0.235717 0.408240 -0.333333 -0.471368 -0.816503 -0.333368 0.997998 0.501001
0.235717 0.408240 -0.333333 -0.471383 -0.816517 -0.333315 0.501001 0.497998
-0.235702 0.408252 0.333333 -0.471383 -0.816517 -0.333315 0.501001 0.251001
-0.471430 0.816483 -0.333333 -0.471383 -0.816517 -0.333315 0.747998 0.251001
0.235717 0.408240 -0.333333 -0.471388 0.816509 -0.333326 0.501001 0.247998
-0.000000 0.000000 -1.000000 -0.471388 0.816509 -0.333326 0.501001 0.001001
-0.471405 0.000003 -0.333333 -0.471388 0.816509 -0.333326 0.747998 0.001001
-0.471415 -0.000009 -0.333333 -0.471399 0.816497 -0.333340 0.251001 0.997998
-0.942810 0.000006 0.333333 -0.471399 0.816497 -0.333340 0.251001 0.751001
-0.235715 0.408241 0.333333 -0.471399 0.816497 -0.333340 0.497998 0.751001
3 0 1 2
3 3 4 5
3 6 7 8
3 9 10 11
3 12 13 14
3 15 16 17
3 18 19 20
3 21 22 23
3 24 25 26
3 27 28 29
3 30 31 32
3 33 34 35
3 36 37 38
3 39 40 41
3 42 43 44
3 45 46 47
3 48 49 50
3 51 52 53
3 54 55 56
3 57 58 59
3 60 61 62
3 63 64 65
3 66 67 68
3 69 70 71
3 72 73 74
3 75 76 77
