# Blender v2.80 (sub 75) OBJ File: 'untitled.blend'
# www.blender.org
mtllib tetra.mtl
o Plane.001
v -0.942810 0.333333 -0.000006
v 0.471405 0.333333 -0.816497
v 0.471435 0.333333 -0.816480
v -0.000000 -1.000000 -0.000000
v 0.471380 0.333333 0.816512
v -0.000000 -1.000000 -0.000000
v -0.471400 -0.333333 0.816500
v 0.235690 -0.333333 0.408256
v 0.942810 -0.333333 -0.000035
v -0.235702 0.333333 -0.408252
v -0.471430 -0.333333 -0.816483
v 0.000000 1.000000 0.000000
v 0.000000 1.000000 0.000000
v -0.471430 -0.333333 -0.816483
v -0.471400 -0.333333 0.816500
v -0.235700 0.333333 0.408250
v -0.235715 0.333333 -0.408241
v 0.471407 0.333333 0.000016
v -0.471415 -0.333333 0.000009
v 0.235717 -0.333333 -0.408240
v -0.235715 0.333333 0.408253
v -0.471405 -0.333333 -0.000003
vt 0.335942 0.000254
vt 0.335942 0.387873
vt 0.000254 0.194063
vt 0.168098 0.097158
vt 0.854513 0.775995
vt 0.686669 0.872900
vt 0.686670 0.679090
vt 0.854514 0.969803
vt 0.854513 0.194063
vt 0.686670 0.290967
vt 0.686669 0.097158
vt 0.433356 0.372834
vt 0.530261 0.540679
vt 0.336449 0.540677
vt 0.686162 0.372326
vt 0.336449 0.130163
vt 0.344175 0.130990
vt 0.508155 0.239636
vt 0.683096 0.361987
vt 0.686162 0.000254
vt 0.679173 0.178909
vt 0.680457 0.005958
vt 0.521701 0.064746
vt 0.674811 0.183917
vt 0.854514 0.387873
vt 0.686671 0.484777
vt 0.627167 0.708522
vt 0.433358 0.708523
vt 0.168098 0.918385
vt 0.000254 0.821480
vt 0.168098 0.724575
vt 0.854514 0.000254
vt 0.854514 0.582189
vt 0.627168 0.372833
vt 0.854510 0.581682
vt 0.504808 0.805938
vt 0.672649 0.709031
vt 0.672649 0.902840
vt 0.504807 0.999746
vt 0.504300 0.999739
vt 0.336449 0.902842
vt 0.504300 0.805934
vt 0.290968 0.724068
vt 0.000254 0.556230
vt 0.194063 0.556224
vt 0.290968 0.388380
vt 0.336455 0.709031
vn -0.4714 -0.3333 -0.8165
vn 0.9428 -0.3333 0.0000
vn -0.4714 -0.3333 0.8165
vn 0.4714 0.3333 -0.8165
vn 0.0000 0.0000 1.0000
vn 0.0000 1.0000 0.0000
vn 0.8729 0.2182 -0.4364
vn -0.9428 0.3333 0.0000
vn 0.4714 0.3333 0.8165
vn -0.0000 -1.0000 0.0000
vn -0.4714 -0.3334 0.8165
usemtl Material.001
s off
f 2/1/1 4/2/1 1/3/1 10/4/1
f 5/5/2 8/6/2 18/7/2
f 5/5/3 21/8/3 8/6/3
f 8/9/3 22/10/3 6/11/3
f 13/12/4 18/13/4 10/14/4
f 7/15/5 12/16/5 13/17/5 16/18/5 15/19/5
f 11/20/6 7/15/6 15/19/6 19/21/6 14/22/6
f 12/16/7 11/20/7 14/22/7 17/23/7 13/17/7
f 16/18/8 13/17/8 17/23/8
f 15/19/8 16/18/8 19/24/8
f 14/22/8 19/21/8 17/23/8
f 8/9/3 21/25/3 22/10/3
f 21/25/3 1/26/3 22/10/3
f 18/13/2 20/27/2 3/28/2
f 18/29/2 8/30/2 20/31/2
f 8/9/2 6/11/2 20/32/2
f 18/7/6 16/33/6 5/5/6
f 13/12/9 21/34/9 18/13/9
f 1/26/6 21/25/6 17/35/6
f 15/36/1 21/37/1 8/38/1
f 15/36/10 19/39/10 8/38/10
f 22/40/6 20/41/6 14/42/6
f 10/14/6 18/13/6 3/28/6
f 8/43/1 18/44/1 9/45/1
f 20/46/6 8/43/6 9/45/6
f 9/45/11 18/44/11 20/46/11
f 20/41/3 10/47/3 14/42/3
l 5 15
l 5 9
l 5 13
l 1 13
l 3 13
l 3 9
l 6 9
l 2 14
l 1 14
l 6 14
l 6 15
l 1 15
