ply
format ascii 1.0
comment Created by Blender 2.80 (sub 75) - www.blender.org, source file: 'tetra.blend'
element vertex 72
property float x
property float y
property float z
property float nx
property float ny
property float nz
property float s
property float t
element face 24
property list uchar uint vertex_indices
end_header
0.471405 0.816497 0.333333 -0.471398 0.816492 -0.333354 0.399754 0.230620
0.235717 0.408240 -0.333333 -0.471398 0.816492 -0.333354 0.399754 0.460997
-0.235702 0.408252 0.333333 -0.471398 0.816492 -0.333354 0.200240 0.345806
0.471380 -0.816512 0.333333 0.942809 -0.000032 -0.333335 0.599752 0.691855
0.235690 -0.408256 -0.333333 0.942809 -0.000032 -0.333335 0.400240 0.807044
0.471407 -0.000016 0.333333 0.942809 -0.000032 -0.333335 0.400240 0.576666
0.471380 -0.816512 0.333333 -0.471430 -0.816482 -0.333334 0.599752 0.691855
-0.235700 -0.408250 0.333333 -0.471430 -0.816482 -0.333334 0.599752 0.922227
0.235690 -0.408256 -0.333333 -0.471430 -0.816482 -0.333334 0.400240 0.807044
0.235690 -0.408256 -0.333333 -0.471418 -0.816486 -0.333340 0.600239 0.807052
-0.471405 0.000003 -0.333333 -0.471418 -0.816486 -0.333340 0.600238 0.576676
-0.000000 0.000000 -1.000000 -0.471418 -0.816486 -0.333340 0.799751 0.691863
0.000000 -0.000000 1.000000 0.471421 0.816490 0.333327 0.799751 0.230620
0.471407 -0.000016 0.333333 0.471421 0.816490 0.333327 0.600239 0.345812
-0.235702 0.408252 0.333333 0.471421 0.816490 0.333327 0.600238 0.115431
-0.235700 -0.408250 0.333333 -0.942810 -0.000003 0.333332 0.799752 0.000243
0.000000 -0.000000 1.000000 -0.942810 -0.000003 0.333332 0.799751 0.230620
-0.235702 0.408252 0.333333 -0.942810 -0.000003 0.333332 0.600238 0.115431
-0.471400 -0.816500 -0.333333 -0.942809 -0.000005 0.333334 0.399753 0.691859
-0.235700 -0.408250 0.333333 -0.942809 -0.000005 0.333334 0.399753 0.922237
-0.471405 0.000003 -0.333333 -0.942809 -0.000005 0.333334 0.200239 0.807049
-0.471430 0.816483 -0.333333 -0.942803 -0.000029 0.333350 0.199753 0.230629
-0.471405 0.000003 -0.333333 -0.942803 -0.000029 0.333350 0.000245 0.345816
-0.235702 0.408252 0.333333 -0.942803 -0.000029 0.333350 0.000243 0.115438
-0.235700 -0.408250 0.333333 -0.471409 -0.816494 -0.333334 0.599752 0.000243
-0.942810 0.000006 0.333333 -0.471409 -0.816494 -0.333334 0.599752 0.230622
-0.471405 0.000003 -0.333333 -0.471409 -0.816494 -0.333334 0.400240 0.115433
0.471407 -0.000016 0.333333 0.942815 0.000003 -0.333316 0.200239 0.115426
0.235717 0.408240 -0.333333 0.942815 0.000003 -0.333316 0.399754 0.000243
0.471405 0.816497 0.333333 0.942815 0.000003 -0.333316 0.399754 0.230620
0.235690 -0.408256 -0.333333 0.942809 -0.000032 -0.333335 0.600239 0.807052
-0.000000 0.000000 -1.000000 0.942809 -0.000032 -0.333335 0.799751 0.691863
0.235717 0.408240 -0.333333 0.942809 -0.000032 -0.333335 0.799751 0.922240
0.471407 -0.000016 0.333333 0.000000 0.000000 1.000000 0.400240 0.576666
-0.235700 -0.408250 0.333333 0.000000 0.000000 1.000000 0.599752 0.461482
0.471380 -0.816512 0.333333 0.000000 0.000000 1.000000 0.599752 0.691855
0.000000 -0.000000 1.000000 0.471390 -0.816500 0.333345 0.799751 0.230620
-0.235700 -0.408250 0.333333 0.471390 -0.816500 0.333345 0.799752 0.460997
0.471407 -0.000016 0.333333 0.471390 -0.816500 0.333345 0.600239 0.345812
-0.942810 0.000006 0.333333 -0.000000 0.000000 1.000000 0.599752 0.230622
-0.235700 -0.408250 0.333333 -0.000000 0.000000 1.000000 0.599752 0.461000
-0.235702 0.408252 0.333333 -0.000000 0.000000 1.000000 0.400240 0.345810
-0.471400 -0.816500 -0.333333 0.471409 -0.816494 0.333334 0.399753 0.691859
0.235690 -0.408256 -0.333333 0.471409 -0.816494 0.333334 0.200244 0.576673
-0.235700 -0.408250 0.333333 0.471409 -0.816494 0.333334 0.399753 0.461482
-0.471400 -0.816500 -0.333333 -0.000000 -0.000001 -1.000000 0.399753 0.691859
-0.471405 0.000003 -0.333333 -0.000000 -0.000001 -1.000000 0.200239 0.807049
0.235690 -0.408256 -0.333333 -0.000000 -0.000001 -1.000000 0.200244 0.576673
-0.471405 0.000003 -0.333333 -0.000000 0.000000 -1.000000 0.000245 0.345816
-0.471430 0.816483 -0.333333 -0.000000 0.000000 -1.000000 0.199753 0.230629
0.235717 0.408240 -0.333333 -0.000000 0.000000 -1.000000 0.199754 0.461015
-0.235702 0.408252 0.333333 -0.000000 -0.000000 1.000000 0.200240 0.345806
0.471407 -0.000016 0.333333 -0.000000 -0.000000 1.000000 0.200239 0.115426
0.471405 0.816497 0.333333 -0.000000 -0.000000 1.000000 0.399754 0.230620
0.235690 -0.408256 -0.333333 0.471441 -0.816491 0.333296 0.800237 0.345804
0.942810 0.000035 -0.333333 0.471441 -0.816491 0.333296 0.999757 0.230610
0.471407 -0.000016 0.333333 0.471441 -0.816491 0.333296 0.800242 0.115426
0.235717 0.408240 -0.333333 0.000000 -0.000000 -1.000000 0.999757 0.460978
0.942810 0.000035 -0.333333 0.000000 -0.000000 -1.000000 0.999757 0.230610
0.235690 -0.408256 -0.333333 0.000000 -0.000000 -1.000000 0.800237 0.345804
0.942810 0.000035 -0.333333 0.471368 0.816503 0.333368 0.999757 0.230610
0.235717 0.408240 -0.333333 0.471368 0.816503 0.333368 0.999757 0.000243
0.471407 -0.000016 0.333333 0.471368 0.816503 0.333368 0.800242 0.115426
0.235717 0.408240 -0.333333 0.471383 0.816517 0.333315 0.199754 0.000243
-0.471430 0.816483 -0.333333 0.471383 0.816517 0.333315 0.199753 0.230629
-0.235702 0.408252 0.333333 0.471383 0.816517 0.333315 0.000243 0.115438
0.235717 0.408240 -0.333333 -0.471388 0.816509 -0.333326 0.799751 0.461486
-0.000000 0.000000 -1.000000 -0.471388 0.816509 -0.333326 0.799751 0.691863
-0.471405 0.000003 -0.333333 -0.471388 0.816509 -0.333326 0.600238 0.576676
-0.471405 0.000003 -0.333333 -0.471402 0.816497 -0.333335 0.400240 0.115433
-0.942810 0.000006 0.333333 -0.471402 0.816497 -0.333335 0.599752 0.230622
-0.235702 0.408252 0.333333 -0.471402 0.816497 -0.333335 0.400240 0.345810
3 0 1 2
3 3 4 5
3 6 7 8
3 9 10 11
3 12 13 14
3 15 16 17
3 18 19 20
3 21 22 23
3 24 25 26
3 27 28 29
3 30 31 32
3 33 34 35
3 36 37 38
3 39 40 41
3 42 43 44
3 45 46 47
3 48 49 50
3 51 52 53
3 54 55 56
3 57 58 59
3 60 61 62
3 63 64 65
3 66 67 68
3 69 70 71
