ply
format ascii 1.0
comment Created by Blender 2.80 (sub 75) - www.blender.org, source file: 'tetra.blend'
element vertex 40
property float x
property float y
property float z
property float s
property float t
element face 24
property list uchar uint vertex_indices
end_header
0.471405 0.816497 0.333333 0.399754 0.230620
0.235717 0.408240 -0.333333 0.399754 0.460997
-0.235702 0.408252 0.333333 0.200240 0.345806
0.471380 -0.816512 0.333333 0.599752 0.691855
0.235690 -0.408256 -0.333333 0.400240 0.807044
0.471407 -0.000016 0.333333 0.400240 0.576666
-0.235700 -0.408250 0.333333 0.599752 0.922227
0.235690 -0.408256 -0.333333 0.600239 0.807052
-0.471405 0.000003 -0.333333 0.600238 0.576676
-0.000000 0.000000 -1.000000 0.799751 0.691863
0.000000 -0.000000 1.000000 0.799751 0.230620
0.471407 -0.000016 0.333333 0.600239 0.345812
-0.235702 0.408252 0.333333 0.600238 0.115431
-0.235700 -0.408250 0.333333 0.799752 0.000243
-0.471400 -0.816500 -0.333333 0.399753 0.691859
-0.235700 -0.408250 0.333333 0.399753 0.922237
-0.471405 0.000003 -0.333333 0.200239 0.807049
-0.471430 0.816483 -0.333333 0.199753 0.230629
-0.471405 0.000003 -0.333333 0.000245 0.345816
-0.235702 0.408252 0.333333 0.000243 0.115438
-0.235700 -0.408250 0.333333 0.599752 0.000243
-0.942810 0.000006 0.333333 0.599752 0.230622
-0.471405 0.000003 -0.333333 0.400240 0.115433
0.471407 -0.000016 0.333333 0.200239 0.115426
0.235717 0.408240 -0.333333 0.399754 0.000243
0.235717 0.408240 -0.333333 0.799751 0.922240
-0.235700 -0.408250 0.333333 0.599752 0.461482
-0.235700 -0.408250 0.333333 0.799752 0.460997
-0.235700 -0.408250 0.333333 0.599752 0.461000
-0.235702 0.408252 0.333333 0.400240 0.345810
0.235690 -0.408256 -0.333333 0.200244 0.576673
-0.235700 -0.408250 0.333333 0.399753 0.461482
0.235717 0.408240 -0.333333 0.199754 0.461015
0.235690 -0.408256 -0.333333 0.800237 0.345804
0.942810 0.000035 -0.333333 0.999757 0.230610
0.471407 -0.000016 0.333333 0.800242 0.115426
0.235717 0.408240 -0.333333 0.999757 0.460978
0.235717 0.408240 -0.333333 0.999757 0.000243
0.235717 0.408240 -0.333333 0.199754 0.000243
0.235717 0.408240 -0.333333 0.799751 0.461486
3 0 1 2
3 3 4 5
3 3 6 4
3 7 8 9
3 10 11 12
3 13 10 12
3 14 15 16
3 17 18 19
3 20 21 22
3 23 24 0
3 7 9 25
3 5 26 3
3 10 27 11
3 21 28 29
3 14 30 31
3 14 16 30
3 18 17 32
3 2 23 0
3 33 34 35
3 36 34 33
3 34 37 35
3 38 17 19
3 39 9 8
3 22 21 29
